<svg xmlns="http://www.w3.org/2000/svg" height="709pt" version="1.1" viewBox="-63 0 709 709.66731" width="709pt">
<g id="surface1">
<path d="M 12.074219 709.933594 L 31.589844 567.929688 C 34.058594 548.414062 46.484375 492.277344 73.546875 472.433594 C 81.742188 466.820312 90.453125 462.007812 99.566406 458.058594 L 109.257812 453.898438 L 109.257812 559.472656 L 104.964844 561.035156 C 90.65625 566.304688 76.667969 573.589844 76.667969 600.066406 L 76.667969 695.949219 C 76.667969 697.746094 78.125 699.203125 79.921875 699.203125 L 503.921875 699.203125 C 505.703125 699.171875 507.140625 697.734375 507.171875 695.949219 L 507.171875 599.933594 C 507.171875 573.914062 493.773438 567.019531 478.8125 561.554688 L 474.519531 559.996094 L 474.519531 454.15625 L 483.753906 458.449219 C 492.628906 462.339844 501.117188 467.042969 509.125 472.5 C 541.652344 496.175781 551.019531 567.277344 551.148438 567.992188 L 570.664062 710 Z M 12.074219 709.933594 " style=" stroke:none;fill-rule:nonzero;fill:rgb(3.137255%,38.431373%,48.627451%);fill-opacity:1;" />
<path d="M 563.3125 709.933594 L 19.488281 709.933594 L 38.15625 568.773438 C 40.566406 549.648438 52.46875 496.046875 77.511719 477.703125 C 85.46875 472.300781 93.917969 467.652344 102.753906 463.847656 L 102.753906 554.917969 C 88.378906 560.1875 70.226562 568.773438 70.226562 599.933594 L 70.226562 695.820312 C 70.226562 701.207031 74.597656 705.578125 79.984375 705.578125 L 503.921875 705.578125 C 509.308594 705.578125 513.679688 701.207031 513.679688 695.820312 L 513.679688 599.933594 C 513.679688 568.773438 495.398438 560.90625 481.152344 555.441406 L 481.152344 464.371094 C 489.628906 468.089844 497.753906 472.578125 505.417969 477.769531 C 530.398438 496.050781 542.300781 549.714844 544.773438 568.839844 Z M 563.3125 709.933594 " style=" stroke:none;fill-rule:nonzero;fill:rgb(3.137255%,38.431373%,48.627451%);fill-opacity:1;" />
<path d="M 83.238281 693.867188 L 83.238281 601.234375 C 83.238281 565.261719 111.796875 560.902344 112.964844 560.773438 C 114.605469 560.570312 115.839844 559.171875 115.828125 557.519531 L 115.828125 452.726562 L 119.992188 451.097656 C 129.878906 447.261719 141.199219 443.226562 153.558594 439.195312 L 162.078125 436.394531 L 162.078125 561.035156 C 162.078125 562.828125 163.535156 564.285156 165.332031 564.285156 L 419.027344 564.285156 C 420.824219 564.285156 422.28125 562.828125 422.28125 561.035156 L 422.28125 436.65625 L 468.46875 452.855469 L 468.46875 557.519531 C 468.480469 559.140625 469.664062 560.519531 471.265625 560.773438 C 472.5 560.773438 501.121094 565.261719 501.121094 601.234375 L 501.121094 693.867188 C 501.125 693.867188 83.238281 693.867188 83.238281 693.867188 Z M 465.019531 600 L 465.019531 595.511719 L 425.339844 595.511719 L 425.339844 600 Z M 158.828125 600 L 158.828125 595.511719 L 118.820312 595.511719 L 118.820312 600 Z M 158.828125 600 " style=" stroke:none;fill-rule:nonzero;fill:rgb(96.470588%,40.392157%,0.392157%);fill-opacity:1;" />
<path d="M 469.964844 567.214844 C 465.132812 566.539062 461.527344 562.40625 461.507812 557.519531 L 461.507812 457.34375 L 428.007812 445.828125 L 428.007812 561.035156 C 428.007812 566.421875 423.636719 570.792969 418.25 570.792969 L 164.550781 570.792969 C 159.164062 570.792969 154.792969 566.421875 154.792969 561.035156 L 154.792969 445.375 C 143.671875 449.015625 132.285156 452.984375 121.554688 457.148438 L 121.554688 557.519531 C 121.566406 562.414062 117.949219 566.5625 113.097656 567.214844 C 110.6875 567.539062 88.960938 571.765625 88.960938 601.234375 L 88.960938 687.363281 L 494.164062 687.363281 L 494.164062 601.234375 C 494.164062 570.792969 470.941406 567.34375 469.964844 567.214844 Z M 165.070312 606.246094 L 112.316406 606.246094 L 112.316406 589.007812 L 165.070312 589.007812 Z M 471.265625 606.246094 L 418.574219 606.246094 L 418.574219 589.007812 L 471.265625 589.007812 Z M 471.265625 606.246094 " style=" stroke:none;fill-rule:nonzero;fill:rgb(96.470588%,40.392157%,0.392157%);fill-opacity:1;" />
<path d="M 168.324219 557.78125 L 168.324219 434.183594 L 172.941406 432.753906 C 190.703125 427.289062 206.117188 423.128906 216.136719 420.460938 L 220.234375 419.355469 L 289.253906 506.976562 C 289.851562 507.769531 290.792969 508.226562 291.789062 508.214844 C 292.753906 508.246094 293.675781 507.808594 294.261719 507.042969 L 362.953125 419.613281 L 367.769531 420.914062 C 376.355469 423.257812 392.421875 427.421875 411.027344 433.210938 L 415.644531 434.574219 L 415.644531 557.78125 Z M 168.324219 557.78125 " style=" stroke:none;fill-rule:nonzero;fill:rgb(3.137255%,38.431373%,48.627451%);fill-opacity:1;" />
<path d="M 408.492188 439.453125 L 408.492188 551.277344 L 174.308594 551.277344 L 174.308594 439.257812 C 192.914062 433.535156 208.914062 429.242188 217.242188 427.027344 L 284.179688 511.007812 C 286.007812 513.351562 288.816406 514.722656 291.789062 514.71875 C 294.78125 514.730469 297.597656 513.332031 299.398438 510.945312 L 365.035156 427.027344 C 373.496094 429.304688 389.824219 433.730469 408.492188 439.453125 Z M 408.492188 439.453125 " style=" stroke:none;fill-rule:nonzero;fill:rgb(3.137255%,38.431373%,48.627451%);fill-opacity:1;" />
<path d="M 224.722656 414.867188 L 224.722656 387.675781 L 233.960938 391.902344 C 247.679688 398.25 262.621094 401.535156 277.738281 401.53125 L 305.84375 401.53125 C 320.6875 401.53125 335.367188 398.382812 348.90625 392.292969 L 358.078125 388.195312 L 358.078125 414.929688 L 291.726562 499.496094 Z M 224.722656 414.867188 " style=" stroke:none;fill-rule:nonzero;fill:rgb(90.196078%,66.27451%,39.215686%);fill-opacity:1;" />
<path d="M 351.574219 398.210938 L 351.574219 412.652344 L 291.402344 489.152344 L 230.902344 412.589844 L 230.902344 397.824219 C 245.488281 404.542969 261.351562 408.027344 277.414062 408.035156 L 305.515625 408.035156 C 321.386719 408.066406 337.09375 404.71875 351.574219 398.210938 Z M 351.574219 398.210938 " style=" stroke:none;fill-rule:nonzero;fill:rgb(90.196078%,66.27451%,39.215686%);fill-opacity:1;" />
<path d="M 428.007812 268.109375 C 418.777344 268.109375 411.289062 260.625 411.289062 251.394531 L 411.289062 224.851562 C 411.289062 215.636719 418.757812 208.167969 427.976562 208.167969 C 437.195312 208.167969 444.660156 215.632812 444.660156 224.851562 L 444.660156 251.394531 C 444.660156 260.597656 437.210938 268.070312 428.007812 268.109375 Z M 428.007812 268.109375 " style=" stroke:none;fill-rule:nonzero;fill:rgb(98.823529%,75.294118%,50.980392%);fill-opacity:1;" />
<path d="M 438.285156 224.851562 L 438.285156 251.394531 C 438.285156 257.011719 433.726562 261.574219 428.105469 261.574219 C 422.484375 261.574219 417.921875 257.011719 417.921875 251.394531 L 417.921875 224.851562 C 417.921875 219.230469 422.484375 214.671875 428.105469 214.671875 C 433.726562 214.671875 438.285156 219.226562 438.285156 224.851562 Z M 438.285156 224.851562 " style=" stroke:none;fill-rule:nonzero;fill:rgb(98.823529%,75.294118%,50.980392%);fill-opacity:1;" />
<path d="M 299.074219 12.851562 L 306.101562 13.4375 C 318.585938 14.394531 330.871094 17.105469 342.59375 21.503906 L 346.757812 23.128906 L 346.757812 78.878906 L 345.71875 80.503906 C 336.726562 93.585938 322.46875 102.089844 306.6875 103.792969 L 299.269531 104.832031 Z M 299.074219 12.851562 " style=" stroke:none;fill-rule:nonzero;fill:rgb(82.352941%,34.901961%,4.313725%);fill-opacity:1;" />
<path d="M 340.253906 27.617188 L 340.253906 76.992188 C 332.265625 88.558594 319.574219 96.003906 305.582031 97.351562 L 305.582031 19.941406 C 317.441406 20.847656 329.117188 23.429688 340.253906 27.617188 Z M 340.253906 27.617188 " style=" stroke:none;fill-rule:nonzero;fill:rgb(82.352941%,34.901961%,4.313725%);fill-opacity:1;" />
<path d="M 284.894531 103.792969 C 269.101562 102.113281 254.84375 93.605469 245.867188 80.503906 L 244.824219 78.878906 L 244.824219 19.941406 L 249.441406 18.578125 C 261.28125 15.1875 273.5 13.308594 285.804688 12.980469 L 292.3125 12.980469 L 292.3125 104.835938 Z M 284.894531 103.792969 " style=" stroke:none;fill-rule:nonzero;fill:rgb(82.352941%,34.901961%,4.313725%);fill-opacity:1;" />
<path d="M 286.066406 19.488281 L 286.066406 97.546875 C 272.058594 96.1875 259.355469 88.738281 251.328125 77.1875 L 251.328125 25.144531 C 262.621094 21.789062 274.292969 19.890625 286.066406 19.488281 Z M 286.066406 19.488281 " style=" stroke:none;fill-rule:nonzero;fill:rgb(82.352941%,34.901961%,4.313725%);fill-opacity:1;" />
<path d="M 155.511719 268.109375 C 146.28125 268.109375 138.792969 260.625 138.792969 251.394531 L 138.792969 224.851562 C 138.792969 215.636719 146.257812 208.167969 155.476562 208.167969 C 164.695312 208.167969 172.164062 215.632812 172.164062 224.851562 L 172.164062 251.394531 C 172.164062 260.597656 164.714844 268.070312 155.511719 268.109375 Z M 155.511719 268.109375 " style=" stroke:none;fill-rule:nonzero;fill:rgb(98.823529%,75.294118%,50.980392%);fill-opacity:1;" />
<path d="M 165.65625 224.851562 L 165.65625 251.394531 C 165.65625 257.011719 161.097656 261.574219 155.476562 261.574219 C 149.855469 261.574219 145.296875 257.011719 145.296875 251.394531 L 145.296875 224.851562 C 145.296875 219.230469 149.855469 214.671875 155.476562 214.671875 C 161.097656 214.671875 165.65625 219.226562 165.65625 224.851562 Z M 165.65625 224.851562 " style=" stroke:none;fill-rule:nonzero;fill:rgb(98.823529%,75.294118%,50.980392%);fill-opacity:1;" />
<path d="M 173.855469 210.152344 L 171.964844 208.199219 C 167.632812 203.777344 161.703125 201.289062 155.507812 201.304688 C 154.070312 201.304688 152.632812 201.433594 151.214844 201.695312 L 147.703125 202.34375 L 145.296875 199.742188 C 142.773438 196.582031 141.523438 192.59375 141.785156 188.554688 L 141.785156 176.648438 C 141.648438 171.839844 143.109375 167.132812 145.945312 163.25 C 147.535156 161.679688 149.707031 160.855469 151.929688 160.972656 L 155.703125 160.972656 C 157.5 160.972656 158.957031 159.515625 158.957031 157.71875 C 158.957031 153.882812 159.738281 62.808594 229.015625 26.902344 L 238.515625 21.957031 L 238.515625 79.460938 C 238.515625 80.003906 238.625 80.527344 238.839844 81.023438 C 241.3125 85.835938 256.207031 110.945312 296.019531 110.945312 C 338.367188 110.945312 352.613281 82.128906 353.199219 80.894531 C 353.289062 80.417969 353.289062 79.9375 353.199219 79.460938 L 353.199219 25.472656 L 363.214844 31.976562 C 421.761719 69.445312 424.6875 149.066406 424.820312 157.785156 C 424.78125 159.578125 426.210938 161.0625 428.007812 161.101562 C 428.027344 161.101562 428.050781 161.101562 428.070312 161.101562 L 431.777344 161.101562 C 434.25 160.898438 436.671875 161.890625 438.285156 163.769531 C 440.9375 167.722656 442.277344 172.40625 442.121094 177.167969 L 442.121094 188.683594 C 442.433594 192.964844 441.003906 197.183594 438.152344 200.394531 L 435.746094 202.800781 L 432.363281 202.214844 C 430.992188 201.953125 429.601562 201.824219 428.203125 201.824219 C 421.988281 201.796875 416.03125 204.289062 411.679688 208.71875 L 409.792969 210.671875 Z M 173.855469 210.152344 " style=" stroke:none;fill-rule:nonzero;fill:rgb(96.470588%,40.392157%,0.392157%);fill-opacity:1;" />
<path d="M 435.488281 176.910156 L 435.488281 188.554688 C 435.773438 191.089844 435.050781 193.640625 433.472656 195.644531 C 431.714844 195.304688 429.925781 195.128906 428.136719 195.125 C 420.234375 195.035156 412.628906 198.105469 406.996094 203.648438 L 176.585938 203.648438 C 171.039062 197.980469 163.4375 194.792969 155.507812 194.800781 C 153.675781 194.804688 151.847656 194.980469 150.042969 195.320312 C 148.542969 193.277344 147.84375 190.753906 148.09375 188.230469 L 148.09375 176.648438 C 147.941406 173.558594 148.738281 170.496094 150.371094 167.867188 C 150.371094 167.867188 150.761719 167.476562 151.734375 167.476562 L 155.507812 167.476562 C 160.894531 167.476562 165.265625 163.105469 165.265625 157.71875 C 165.265625 153.167969 166.566406 66.648438 231.8125 32.691406 L 231.8125 79.53125 C 231.8125 80.984375 232.125 82.429688 232.722656 83.757812 C 233.4375 85.125 249.3125 117.519531 295.824219 117.519531 C 342.335938 117.519531 358.207031 84.992188 358.859375 83.757812 C 359.457031 82.429688 359.769531 80.984375 359.769531 79.527344 L 359.769531 37.375 C 416.949219 73.933594 418.3125 153.425781 418.3125 157.785156 C 418.347656 163.125 422.664062 167.445312 428.007812 167.476562 L 431.714844 167.476562 C 432.691406 167.476562 432.949219 167.476562 433.078125 167.867188 C 434.792969 170.5625 435.632812 173.714844 435.488281 176.910156 Z M 435.488281 176.910156 " style=" stroke:none;fill-rule:nonzero;fill:rgb(96.470588%,40.392157%,0.392157%);fill-opacity:1;" />
<path d="M 277.738281 395.023438 C 223.066406 394.984375 178.738281 350.691406 178.667969 296.019531 L 178.667969 224.851562 L 177.5625 217.4375 L 185.042969 216.65625 L 406.214844 216.65625 L 405.109375 224.070312 L 405.109375 295.628906 C 405.253906 350.382812 360.984375 394.882812 306.234375 395.023438 C 306.101562 395.023438 305.972656 395.023438 305.84375 395.023438 Z M 277.738281 395.023438 " style=" stroke:none;fill-rule:nonzero;fill:rgb(98.823529%,75.294118%,50.980392%);fill-opacity:1;" />
<path d="M 398.539062 223.160156 C 398.507812 223.617188 398.507812 224.070312 398.539062 224.527344 L 398.539062 296.015625 C 398.464844 347.152344 356.976562 388.558594 305.839844 388.519531 L 277.738281 388.519531 C 226.667969 388.445312 185.285156 347.089844 185.171875 296.015625 L 185.171875 224.851562 C 185.210938 224.394531 185.210938 223.941406 185.171875 223.484375 Z M 398.539062 223.160156 " style=" stroke:none;fill-rule:nonzero;fill:rgb(98.823529%,75.294118%,50.980392%);fill-opacity:1;" />
<path d="M 564.027344 567.929688 C 563.574219 564.742188 553.683594 490.519531 516.734375 463.847656 C 504.34375 455.582031 491.078125 448.710938 477.183594 443.359375 C 476.378906 442.738281 475.472656 442.257812 474.519531 441.925781 L 466.320312 439.066406 C 454.089844 434.316406 441.277344 429.890625 428.917969 426.054688 L 421.5 422.800781 C 420.765625 422.546875 420 422.398438 419.222656 422.347656 C 398.605469 415.839844 380.519531 411.027344 370.828125 408.425781 L 370.828125 386.894531 C 400.238281 365.890625 417.691406 331.964844 417.664062 295.824219 L 417.664062 279.234375 C 420.929688 280.464844 424.390625 281.101562 427.875 281.121094 C 444.269531 281.082031 457.539062 267.789062 457.539062 251.394531 L 457.539062 224.855469 C 457.53125 217.660156 454.890625 210.71875 450.125 205.339844 C 453.3125 200.3125 454.917969 194.441406 454.742188 188.492188 L 454.742188 177.171875 C 455.269531 168.902344 452.699219 160.742188 447.523438 154.273438 C 444.808594 151.476562 441.363281 149.511719 437.570312 148.613281 C 435.226562 121.746094 422.542969 42.773438 354.433594 12.007812 L 353.851562 12.007812 C 336.101562 4.371094 317.03125 0.304688 297.710938 0.0351562 L 292.050781 0.0351562 C 273.691406 -0.359375 255.414062 2.5 238.058594 8.492188 L 237.667969 8.492188 C 162.339844 36.207031 148.679688 120.378906 146.273438 148.289062 C 142.492188 149.210938 139.042969 151.175781 136.320312 153.949219 C 131.023438 160.386719 128.332031 168.585938 128.773438 176.910156 L 128.773438 188.554688 C 128.617188 194.507812 130.222656 200.367188 133.390625 205.402344 C 128.625 210.78125 125.980469 217.722656 125.976562 224.917969 L 125.976562 251.457031 C 125.976562 267.875 139.285156 281.1875 155.703125 281.1875 C 159.171875 281.160156 162.605469 280.523438 165.851562 279.300781 L 165.851562 296.015625 C 165.898438 331.742188 183.011719 365.296875 211.90625 386.308594 L 211.90625 408.425781 C 177 417.472656 142.640625 428.503906 108.996094 441.46875 L 108.476562 441.46875 C 93.625 447.082031 79.445312 454.324219 66.195312 463.066406 C 29.246094 489.996094 19.421875 564.222656 18.96875 567.148438 L 0.363281 709.546875 L 19.878906 709.546875 L 38.546875 569.6875 C 40.957031 550.5625 52.859375 496.957031 77.902344 478.613281 C 85.753906 473.410156 94.074219 468.941406 102.753906 465.28125 L 102.753906 549.84375 C 88.378906 555.113281 70.226562 569.878906 70.226562 601.039062 L 70.226562 696.925781 C 70.226562 702.3125 74.597656 706.683594 79.984375 706.683594 L 503.921875 706.683594 C 509.308594 706.683594 513.679688 702.3125 513.679688 696.925781 L 513.679688 601.234375 C 513.679688 570.074219 495.398438 555.308594 481.152344 550.039062 L 481.152344 465.476562 C 489.628906 469.195312 497.753906 473.683594 505.417969 478.875 C 530.398438 497.15625 542.300781 550.820312 544.773438 569.945312 L 563.441406 709.804688 L 582.957031 709.804688 Z M 438.285156 224.851562 L 438.285156 251.394531 C 438.285156 257.011719 433.726562 261.574219 428.105469 261.574219 C 422.484375 261.574219 417.921875 257.011719 417.921875 251.394531 L 417.921875 224.851562 C 417.921875 219.230469 422.484375 214.671875 428.105469 214.671875 C 433.726562 214.671875 438.285156 219.226562 438.285156 224.851562 Z M 305.582031 19.941406 C 317.445312 20.847656 329.117188 23.429688 340.253906 27.617188 L 340.253906 76.992188 C 332.265625 88.558594 319.574219 96.003906 305.582031 97.351562 C 305.582031 97.351562 305.582031 19.941406 305.582031 19.941406 Z M 251.328125 24.820312 C 262.636719 21.582031 274.304688 19.785156 286.066406 19.488281 L 286.066406 97.546875 C 272.058594 96.1875 259.355469 88.738281 251.328125 77.1875 Z M 165.65625 251.394531 C 165.65625 257.011719 161.097656 261.574219 155.476562 261.574219 C 149.855469 261.574219 145.296875 257.011719 145.296875 251.394531 L 145.296875 224.851562 C 145.296875 219.230469 149.855469 214.671875 155.476562 214.671875 C 161.097656 214.671875 165.65625 219.230469 165.65625 224.851562 Z M 155.511719 195.125 C 153.675781 195.128906 151.847656 195.304688 150.046875 195.644531 C 148.542969 193.601562 147.847656 191.078125 148.09375 188.554688 L 148.09375 176.648438 C 147.945312 173.558594 148.738281 170.496094 150.371094 167.867188 C 150.371094 167.867188 150.761719 167.476562 151.734375 167.476562 L 155.507812 167.476562 C 160.894531 167.476562 165.265625 163.105469 165.265625 157.71875 C 165.265625 153.164062 166.566406 66.648438 231.8125 32.691406 L 231.8125 79.527344 C 231.8125 80.984375 232.125 82.429688 232.722656 83.757812 C 233.4375 85.121094 249.3125 117.519531 295.824219 117.519531 C 342.335938 117.519531 358.207031 84.992188 358.859375 83.757812 C 359.457031 82.429688 359.769531 80.984375 359.769531 79.527344 L 359.769531 37.375 C 416.949219 73.933594 418.3125 153.425781 418.3125 157.785156 C 418.347656 163.125 422.664062 167.445312 428.007812 167.476562 L 431.714844 167.476562 C 432.691406 167.476562 432.949219 167.476562 433.078125 167.867188 C 434.746094 170.578125 435.539062 173.734375 435.355469 176.910156 L 435.355469 188.554688 C 435.644531 191.089844 434.921875 193.640625 433.339844 195.644531 C 431.582031 195.304688 429.792969 195.128906 428.003906 195.125 C 420.148438 195.074219 412.59375 198.136719 406.992188 203.648438 L 176.585938 203.648438 C 170.984375 198.097656 163.394531 195.027344 155.511719 195.125 Z M 185.171875 296.019531 L 185.171875 224.851562 C 185.210938 224.398438 185.210938 223.941406 185.171875 223.488281 L 398.539062 223.488281 C 398.507812 223.941406 398.507812 224.398438 398.539062 224.851562 L 398.539062 296.019531 C 398.46875 347.152344 356.980469 388.558594 305.84375 388.519531 L 277.738281 388.519531 C 226.667969 388.449219 185.277344 347.082031 185.171875 296.019531 Z M 351.574219 398.210938 L 351.574219 412.652344 L 291.402344 489.152344 L 230.902344 412.589844 L 230.902344 397.824219 C 245.488281 404.542969 261.351562 408.027344 277.414062 408.035156 L 305.515625 408.035156 C 321.386719 408.066406 337.09375 404.71875 351.574219 398.210938 Z M 174.828125 439.257812 C 193.433594 433.535156 209.4375 429.242188 217.761719 427.027344 L 284.179688 511.007812 C 286.007812 513.351562 288.816406 514.722656 291.789062 514.71875 C 294.78125 514.730469 297.597656 513.332031 299.402344 510.945312 L 365.039062 427.027344 C 373.429688 429.304688 389.757812 433.535156 408.753906 439.453125 L 408.753906 551.277344 L 174.570312 551.277344 Z M 494.164062 601.234375 L 494.164062 687.363281 L 89.742188 687.363281 L 89.742188 601.234375 C 89.742188 571.769531 111.46875 567.539062 113.878906 567.214844 C 118.703125 566.53125 122.28125 562.394531 122.269531 557.519531 L 122.269531 457.34375 C 133.003906 453.179688 144.386719 449.210938 155.511719 445.570312 L 155.511719 561.035156 C 155.511719 566.421875 159.882812 570.792969 165.265625 570.792969 L 418.964844 570.792969 C 424.351562 570.792969 428.722656 566.421875 428.722656 561.035156 L 428.722656 445.828125 L 461.507812 457.34375 L 461.507812 557.519531 C 461.527344 562.40625 465.132812 566.539062 469.964844 567.214844 C 470.941406 567.34375 494.164062 570.792969 494.164062 601.234375 Z M 494.164062 601.234375 " style=" stroke:none;fill-rule:nonzero;fill:rgb(0%,0%,0%);fill-opacity:1;" />
<path d="M 112.316406 589.003906 L 165.070312 589.003906 L 165.070312 606.503906 L 112.316406 606.503906 Z M 112.316406 589.003906 " style=" stroke:none;fill-rule:nonzero;fill:rgb(0%,0%,0%);fill-opacity:1;" />
<path d="M 418.574219 589.003906 L 471.265625 589.003906 L 471.265625 606.503906 L 418.574219 606.503906 Z M 418.574219 589.003906 " style=" stroke:none;fill-rule:nonzero;fill:rgb(0%,0%,0%);fill-opacity:1;" />
</g>
</svg>